PathFileType  4	(X/Y/Z) C:\Users\antoi\Documents\MyRepositories\mobilecap\ResultsAnalysis
DataRate	CameraRate	NumFrames	NumMarkers	Units	OrigDataRate	OrigDataStartFrame	OrigNumFrames
100.0	100.0	6	51	mm	100.0	1003	1336
Frame#	Time	r_knee			r_shank_antsup			r_ankle			r_calc			r_5meta			r_toe			L_knee			L_shank_antsup			L_ankle			L_calc			L_5meta			L_toe			r_sh2			r_sh3			r_sh4			L_sh2			L_sh3			r_thigh1			r_thigh2			r_thigh3			r_thigh4			r_thigh5			L_thigh1			L_thigh2			L_thigh3			L_thigh4			r.ASIS			r.PSIS			L.ASIS			L.PSIS			C7			R_Shoulder			L_Shoulder			R_Sternum			L_Sternum			R_humerus			R_elbow_med			R_elbow_lat			R_forearm			R_wrist_radius			R_wrist_ulna			L_humerus			L_elbow_med			L_elbow_lat			L_forearm			L_wrist_radius			L_wrist_ulna			R_HJC			L_HJC			R_HJC_reg			L_HJC_reg			
		X1	Y1	Z1	X2	Y2	Z2	X3	Y3	Z3	X4	Y4	Z4	X5	Y5	Z5	X6	Y6	Z6	X7	Y7	Z7	X8	Y8	Z8	X9	Y9	Z9	X10	Y10	Z10	X11	Y11	Z11	X12	Y12	Z12	X13	Y13	Z13	X14	Y14	Z14	X15	Y15	Z15	X16	Y16	Z16	X17	Y17	Z17	X18	Y18	Z18	X19	Y19	Z19	X20	Y20	Z20	X21	Y21	Z21	X22	Y22	Z22	X23	Y23	Z23	X24	Y24	Z24	X25	Y25	Z25	X26	Y26	Z26	X27	Y27	Z27	X28	Y28	Z28	X29	Y29	Z29	X30	Y30	Z30	X31	Y31	Z31	X32	Y32	Z32	X33	Y33	Z33	X34	Y34	Z34	X35	Y35	Z35	X36	Y36	Z36	X37	Y37	Z37	X38	Y38	Z38	X39	Y39	Z39	X40	Y40	Z40	X41	Y41	Z41	X42	Y42	Z42	X43	Y43	Z43	X44	Y44	Z44	X45	Y45	Z45	X46	Y46	Z46	X47	Y47	Z47	X48	Y48	Z48	X49	Y49	Z49	X50	Y50	Z50	X51	Y51	Z51	

1003	10.02000000	-184.94110	496.97326	-460.58532	-166.63427	422.85685	-434.84329	-334.02066	105.32853	-442.80033	-393.52282	50.07480	-489.99011	-203.67935	45.73501	-382.60178	-162.04301	68.70365	-438.74452	-181.64036	489.49212	-781.16941	-175.67883	379.94593	-794.81996	-345.47477	98.16392	-767.69530	-414.74700	48.44126	-725.94136	-203.07280	35.13202	-818.98506	-172.90057	61.83106	-757.47226	-206.69029	317.36705	-427.16772	-235.71634	450.21434	-426.32840	-284.33067	344.30575	-421.09084	-255.60830	420.42174	-805.37199	-298.30489	308.35212	-803.71588	-382.95314	736.64744	-431.76333	-289.78703	682.08704	-441.56436	-295.97816	618.35324	-418.27047	-439.59628	637.70942	-435.35388	-335.42406	584.15131	-431.36496	-374.87657	736.92470	-806.38702	-256.86868	662.00128	-795.24894	-442.56825	639.15683	-808.89709	-321.74789	570.09289	-811.61141	-416.81571	815.48575	-488.42203	-586.66843	898.12232	-572.43149	-408.62752	813.64814	-748.71242	-585.79265	896.21500	-676.59114	-336.08783	1344.48250	-630.73274	-274.11916	1288.04541	-454.88187	-263.73493	1287.17338	-787.44075	-217.82594	1226.96808	-591.75378	-216.37650	1223.94626	-644.88153	-371.55510	1064.68513	-320.10323	-449.51971	975.16655	-363.80432	-415.97728	990.95144	-283.01972	-315.13630	862.72801	-297.07303	-249.10711	771.60936	-323.13833	-282.88373	759.75737	-297.07472	-359.48233	1064.13596	-906.64610	-451.50091	985.95144	-867.00827	-411.76479	994.48693	-935.86233	-312.60589	847.31087	-920.31563	-249.17820	779.80368	-893.22900	-277.68056	756.45660	-909.96360	-514.91318	758.31300	-498.50872	-505.94301	756.14975	-728.69200	-503.15506	761.23450	-525.09183	-501.71066	758.08801	-696.93793	
1004	10.03000000	-182.37621	495.48058	-460.97710	-164.19185	421.55171	-435.21341	-333.88170	105.37890	-442.90493	-393.46558	50.07598	-489.93608	-203.73740	45.86376	-382.62387	-162.03018	68.78569	-438.84628	-179.33869	487.98696	-781.07782	-173.76909	378.81825	-794.67437	-345.33683	98.14368	-767.56014	-414.68695	48.43711	-725.78204	-203.07978	35.17217	-818.98323	-172.85312	61.79498	-757.42320	-205.02111	316.37144	-427.62992	-233.37159	449.40968	-426.64571	-282.43226	343.84921	-421.10957	-253.53360	419.81106	-805.19537	-297.22085	307.24357	-802.69162	-384.33703	731.40162	-432.01694	-290.33648	678.57542	-442.01310	-295.16648	614.73624	-418.87767	-439.19984	631.38066	-435.28813	-333.91349	579.39859	-431.91743	-376.81664	731.64169	-806.15988	-257.41687	658.92103	-794.99740	-442.68014	632.64144	-808.73154	-320.53876	565.98788	-811.55151	-418.79756	807.99662	-487.93673	-588.80710	889.59925	-572.26658	-410.60990	806.04571	-749.19516	-588.16104	887.70874	-676.12781	-336.63132	1335.04477	-630.48923	-274.35481	1278.62782	-455.01420	-264.37033	1277.54766	-787.48534	-218.54883	1217.41872	-591.78344	-217.16115	1214.40407	-644.91864	-371.62833	1056.70442	-318.11614	-450.60619	967.19816	-360.13918	-415.79187	983.30732	-280.02074	-315.04089	855.12106	-295.65842	-249.26169	764.21782	-322.58648	-282.10170	752.56633	-296.05166	-361.11106	1055.21778	-907.07522	-453.78364	977.41285	-867.82598	-413.57291	985.73218	-937.00867	-313.92968	839.38990	-920.60961	-250.02810	772.61833	-893.41637	-278.33570	748.92436	-910.06965	-516.39995	750.22491	-498.31962	-507.65979	748.06972	-728.51168	-504.75787	752.97375	-524.56493	-503.68598	749.83402	-697.05278	
1005	10.04000000	-179.88950	494.05603	-461.28153	-161.84013	420.40666	-435.46009	-333.67472	105.42517	-442.99087	-393.41245	50.08672	-489.98904	-203.69189	46.07909	-382.65734	-161.96045	68.79356	-438.98071	-176.98487	486.54995	-781.06823	-171.70070	377.97853	-795.15103	-345.18008	98.21665	-767.56600	-414.62886	48.63782	-725.68630	-203.05966	35.16508	-818.94277	-172.78883	61.77829	-757.37123	-203.40685	315.34481	-428.30971	-231.07155	448.88880	-427.06848	-280.65310	343.34184	-421.45787	-251.38851	419.28077	-805.08705	-295.91563	306.47110	-802.04454	-385.67333	726.05445	-432.05500	-290.99560	674.99377	-442.34398	-294.26294	611.20821	-419.31600	-438.67161	625.05863	-435.30213	-332.52406	574.76946	-432.36091	-378.67571	726.33185	-806.01462	-258.03537	655.70277	-794.75473	-442.69381	626.00873	-808.33944	-319.26874	561.85374	-811.59378	-420.62358	800.29365	-487.55857	-590.83180	881.06237	-572.04536	-412.53151	798.46765	-749.76001	-590.41907	879.15887	-675.59601	-337.31028	1325.77019	-630.43432	-274.74480	1269.32352	-455.12087	-265.12825	1268.09173	-787.59627	-219.32510	1208.02017	-591.77944	-218.00282	1204.97536	-644.89104	-371.70060	1048.73161	-316.02968	-451.51707	959.01402	-356.82338	-415.59125	975.64107	-277.11216	-315.11551	847.45038	-294.27369	-249.76296	756.39758	-322.51021	-281.79830	745.26262	-295.01990	-362.87310	1046.46958	-907.68288	-456.25691	968.97875	-868.68274	-415.65293	977.14736	-937.88013	-315.61420	831.51614	-920.88760	-251.37356	765.21155	-893.53084	-279.49427	741.35118	-910.00562	-517.75467	741.98386	-498.21956	-509.33897	740.01745	-728.42518	-506.29711	744.74100	-524.12590	-505.60689	741.55857	-697.23495	
1006	10.05000000	-177.59787	492.55380	-461.73225	-159.64917	419.13632	-436.01660	-333.42634	105.41126	-443.15537	-393.46092	50.07472	-490.30544	-203.63217	46.21722	-382.75567	-161.85793	68.74490	-439.13988	-174.66032	485.20278	-781.19273	-169.96402	376.92341	-794.81240	-345.01231	98.35088	-767.60453	-414.57565	48.92151	-725.66399	-203.00496	35.10863	-818.86685	-172.71337	61.74502	-757.30889	-201.90767	314.36173	-428.90453	-228.52383	448.23032	-427.61315	-279.05133	342.76712	-422.13949	-249.25303	418.77451	-805.13988	-294.40786	306.23991	-802.14840	-387.01891	720.59200	-432.03750	-291.60175	671.34540	-442.66209	-293.42623	608.53976	-419.38247	-438.19821	618.71857	-435.28843	-331.27781	570.41113	-432.52534	-380.46464	720.94880	-805.86894	-258.62691	652.39554	-794.63118	-442.64385	619.44975	-808.05351	-318.07218	557.62612	-811.60139	-422.16398	792.44114	-487.30433	-592.71952	872.51323	-571.80880	-414.30860	790.87684	-750.31626	-592.45966	870.55343	-675.22566	-338.15190	1316.69277	-630.53504	-275.32483	1260.15813	-455.26547	-266.08122	1258.78995	-787.65630	-220.18235	1198.75138	-591.79461	-218.94803	1195.70632	-644.87673	-371.73432	1040.91185	-313.89075	-452.69916	951.23573	-353.71092	-415.62398	968.10088	-274.05788	-315.37110	839.72671	-292.86729	-250.61841	748.34538	-322.55653	-282.19936	737.36384	-294.38819	-364.84744	1037.84865	-908.16265	-458.88787	960.73389	-869.47170	-418.01074	968.77299	-938.49272	-317.62973	823.59038	-921.16847	-253.11761	757.69886	-893.53195	-281.13672	733.80935	-909.79005	-518.91250	733.65667	-498.21132	-510.84623	731.93994	-728.43140	-507.69781	736.53198	-523.83887	-507.26096	733.24144	-697.47597	
1007	10.06000000	-175.39725	491.08005	-462.29882	-157.57844	417.79425	-436.81930	-333.18696	105.38498	-443.43814	-393.52199	50.02198	-490.68649	-203.65853	46.16740	-383.00663	-161.76246	68.64825	-439.29429	-172.40492	483.87440	-781.24004	-168.39082	375.74929	-793.94795	-344.84802	98.50507	-767.62144	-414.52738	49.20854	-725.66932	-202.93943	35.05934	-818.78325	-172.63653	61.67163	-757.23932	-200.40274	313.44579	-429.36952	-226.04247	447.16861	-428.27575	-277.42245	342.20627	-422.70253	-247.21610	418.20111	-805.13776	-292.98010	306.09342	-802.32763	-388.42858	715.00919	-432.12208	-292.09856	667.68511	-443.09269	-292.74802	606.11677	-418.99520	-437.87100	612.27298	-435.33319	-330.00722	565.88100	-432.82104	-382.19952	715.52920	-805.68695	-259.01550	649.15523	-794.33120	-442.57091	613.09080	-808.02717	-316.95259	553.34411	-811.32401	-423.41471	784.57486	-487.12532	-594.47393	863.97702	-571.63519	-415.82397	783.25560	-750.88332	-594.32645	861.95311	-675.08942	-339.18775	1307.71414	-630.55432	-276.04250	1251.16386	-455.34859	-267.20693	1249.61797	-787.66842	-221.12420	1189.65347	-591.83445	-220.02203	1186.67074	-644.94822	-371.75086	1033.00618	-312.05364	-454.10924	943.92936	-350.59780	-415.65164	960.52151	-271.33364	-315.89103	831.85669	-291.55976	-251.74860	740.36874	-322.31675	-282.97106	729.21342	-293.97367	-367.02900	1029.37679	-908.53168	-461.59551	952.59275	-870.01733	-420.50659	960.59099	-939.03102	-319.98301	815.56292	-921.37665	-255.21971	750.13502	-893.46451	-283.18609	726.21064	-909.47993	-519.86904	725.34674	-498.28458	-512.10666	723.83713	-728.51739	-508.85959	728.31094	-523.64852	-508.61146	724.90466	-697.76895	
1008	10.07000000	-173.18504	489.76521	-462.81355	-155.57780	416.64124	-437.51837	-332.98325	105.44808	-443.73972	-393.47103	49.93935	-490.96057	-203.67767	46.09061	-383.33947	-161.68426	68.54834	-439.45505	-170.24261	482.54538	-781.09632	-166.62121	374.81557	-793.62740	-344.70374	98.63556	-767.60858	-414.48444	49.44756	-725.64362	-202.89434	35.06949	-818.71807	-172.56969	61.59217	-757.15476	-198.88324	312.50090	-429.97620	-223.87884	446.07337	-429.02664	-275.67565	341.62396	-423.25746	-245.24005	417.60173	-805.02102	-291.65212	305.76664	-802.16064	-389.85669	709.37468	-432.21387	-292.59279	663.98668	-443.65578	-292.07459	602.17040	-418.34749	-437.53681	605.81870	-435.53519	-328.69093	561.18791	-433.34969	-383.89554	710.17198	-805.45258	-259.36851	646.07261	-793.73566	-442.48832	606.81119	-808.00442	-315.82969	549.23922	-811.12208	-424.52885	776.69918	-487.07459	-596.18015	855.43835	-571.45890	-417.38050	775.29697	-751.21821	-596.18316	853.38410	-675.03262	-340.36433	1298.77928	-630.40398	-276.85006	1242.32180	-455.33555	-268.40456	1240.60040	-787.79687	-222.17580	1180.78175	-591.92472	-221.17173	1177.84878	-645.00689	-371.81857	1024.89030	-310.72443	-455.34806	936.50611	-347.53102	-415.09846	952.48662	-269.89167	-316.67489	823.86843	-290.50719	-253.11267	732.37824	-321.94762	-283.95031	721.27207	-293.38286	-369.43804	1021.06415	-908.89668	-464.34164	944.49059	-870.31511	-423.13292	952.57303	-939.50809	-322.64689	807.48169	-921.34659	-257.74317	742.42622	-893.26197	-285.61132	718.37232	-909.00244	-520.83136	717.11104	-498.23638	-513.45278	715.53843	-728.48153	-509.89784	719.96988	-523.51413	-509.90283	716.51163	-697.88000	
